<mxfile host="app.diagrams.net" modified="2023-03-30T12:44:32.644Z" agent="Mozilla/5.0 (Windows NT 10.0; Win64; x64) AppleWebKit/537.36 (KHTML, like Gecko) Chrome/111.0.0.0 Safari/537.36 Edg/111.0.1661.54" version="21.1.2" etag="mXMz2ucHwKwPuetkPSJO" type="github">
  <diagram name="第 1 页" id="ENG7yXR9JIQP00mw4AMP">
    <mxGraphModel>
      <root>
        <mxCell id="0" />
        <mxCell id="1" parent="0" />
      </root>
    </mxGraphModel>
  </diagram>
</mxfile>
